<svg width="356" height="356" viewBox="0 0 356 356" fill="none" xmlns="http://www.w3.org/2000/svg">
<path d="M178 0.5C79.9695 0.5 0.5 79.9695 0.5 178C0.5 276.031 79.9695 355.5 178 355.5C276.031 355.5 355.5 276.031 355.5 178C355.5 130.924 336.799 85.7763 303.511 52.4885C270.224 19.2008 225.076 0.5 178 0.5ZM178 53.75C207.409 53.75 231.25 77.5908 231.25 107C231.25 136.409 207.409 160.25 178 160.25C148.591 160.25 124.75 136.409 124.75 107C124.75 77.5908 148.591 53.75 178 53.75ZM277.755 251.84C254.315 283.406 217.318 302.016 178 302.016C138.682 302.016 101.685 283.406 78.245 251.84C74.681 246.573 74.2071 239.802 77.0025 234.09L80.73 226.28C89.5141 207.66 108.245 195.772 128.832 195.75H227.168C247.466 195.777 265.984 207.342 274.915 225.57L278.997 233.912C281.862 239.672 281.387 246.531 277.755 251.84Z" fill="#E2B2A2"/>
</svg>
